{"title":"Bhaji in Problem Punjabi DVDSCR-Rip x264-D3Si MaNiaCs","uid":9311683,"size":730379462,"categoryP":"video","categoryS":"movies","magnet":"?xt=urn:btih:b9635dacc434bf2719483a5bda7e2356ad216d86&amp;dn=Bhaji+in+Problem+Punjabi+DVDSCR-Rip+x264-D3Si+MaNiaCs&amp;tr=udp%3A%2F%2Ftracker.openbittorrent.com%3A80&amp;tr=udp%3A%2F%2Fopen.demonii.com%3A1337&amp;tr=udp%3A%2F%2Ftracker.coppersurfer.tk%3A6969&amp;tr=udp%3A%2F%2Fexodus.desync.com%3A6969","seeders":0,"leechers":0,"uploader":"HeroMaster","files":-1,"time":1386411373,"description":":::::: D3Si MaNiACs ::::::\n\n  &lt;a href=&quot;\nhttp://i.imgur.com/6eUy2kD.png&quot; rel=&quot;nofollow&quot; target=&quot;_NEW&quot;&gt;\nhttp://i.imgur.com/6eUy2kD.png&lt;/a&gt;\n\n\n:::: Bhaji in Problem Punjabi DVDSCR-Rip x264-D3Si MaNiaCs ::::\n\n\n::Information::\n\n\n===================== General =====================\nFormat                      : Matroska\nFormat version              : Version 2\nFile size                   : 697 MiB\nDuration                    : 1h 59mn\nOverall bit rate            : 814 Kbps\nSubtitles                   : None\n\n===================== Video =====================\nID                          : 1\nFormat                      : AVC\nFormat/Info                 : Advanced Video Codec\nFormat profile              : &lt;a class=&quot;__cf_email__&quot; href=&quot;/cdn-cgi/l/email-protection&quot; data-cfemail=&quot;0b43626c634b473f253a&quot;&gt;[email&amp;#160;protected]&lt;/a&gt;&lt;script data-cfhash='f9e31' type=&quot;text/javascript&quot;&gt;\n/* &lt;![CDATA[ */!function(){try{var t=&quot;currentScript&quot;in document?document.currentScript:function(){for(var t=document.getElementsByTagName(&quot;script&quot;),e=t.length;e--;)if(t[e].getAttribute(&quot;data-cfhash&quot;))return t[e]}();if(t&amp;&amp;t.previousSibling){var e,r,n,i,c=t.previousSibling,a=c.getAttribute(&quot;data-cfemail&quot;);if(a){for(e=&quot;&quot;,r=parseInt(a.substr(0,2),16),n=2;a.length-n;n+=2)i=parseInt(a.substr(n,2),16)^r,e+=String.fromCharCode(i);e=document.createTextNode(e),c.parentNode.replaceChild(e,c)}t.parentNode.removeChild(t);}}catch(u){}}()/* ]]&gt; */&lt;/script&gt;\nFormat settings, CABAC      : Yes\nFormat settings, ReFrames   : 5 frames\nCodec ID                    : V_MPEG4/ISO/AVC\nDuration                    : 1h 59mn\nBit rate                    : 765 Kbps\nWidth                       : 640 pixels\nHeight                      : 272 pixels\nDisplay aspect ratio        : 2.35:1\nFrame rate mode             : Constant\nFrame rate                  : 23.976 fps\nColor space                 : YUV\nChroma subsampling          : 4:2:0\nBit depth                   : 8 bits\nScan type                   : Progressive\nBits/(Pixel*Frame)          : 0.183\nStream size                 : 642 MiB (92%)\n\n===================== Audio =====================\nID                          : 2\nFormat                      : MPEG Audio\nFormat version              : Version 2\nFormat profile              : Layer 3\nMode                        : Joint stereo\nMode extension              : MS Stereo\nCodec ID                    : A_MPEG/L3\nCodec ID/Hint               : MP3\nDuration                    : 1h 59mn\nBit rate mode               : Constant\nBit rate                    : 48.0 Kbps\nChannel(s)                  : 2 channels\nSampling rate               : 22.05 KHz\nCompression mode            : Lossy\nStream size                 : 41.1 MiB (6%)\nWriting library             : LAME3.99.5UUUUUULAME\nDefault                     : Yes\nForced                      : No\nLanguage                    : Punjabi\n\n\n::IMDB::\n\n &lt;a href=&quot;\nhttp://www.imdb.com/title/tt2879770/&quot; rel=&quot;nofollow&quot; target=&quot;_NEW&quot;&gt;\nhttp://www.imdb.com/title/tt2879770/&lt;/a&gt;\n\n\n::Greetz and Respect::\n\n\nALL CREDIT Goes to d3SiM for Encoding and d3SiMaNiACs for Distribution.\n\n\n::Poster::\n\n &lt;a href=&quot;\nhttp://i.imgur.com/baakch7.jpg&quot; rel=&quot;nofollow&quot; target=&quot;_NEW&quot;&gt;\nhttp://i.imgur.com/baakch7.jpg&lt;/a&gt;\n\n\n::Screenshots::\n\n &lt;a href=&quot;\nhttp://i.imgur.com/4ol8uNe.jpg&quot; rel=&quot;nofollow&quot; target=&quot;_NEW&quot;&gt;\nhttp://i.imgur.com/4ol8uNe.jpg&lt;/a&gt;\n\n &lt;a href=&quot;\nhttp://i.imgur.com/GCDT7hw.jpg&quot; rel=&quot;nofollow&quot; target=&quot;_NEW&quot;&gt;\nhttp://i.imgur.com/GCDT7hw.jpg&lt;/a&gt;\n\n &lt;a href=&quot;\nhttp://i.imgur.com/frI7lYn.jpg&quot; rel=&quot;nofollow&quot; target=&quot;_NEW&quot;&gt;\nhttp://i.imgur.com/frI7lYn.jpg&lt;/a&gt;\n\n\nSEED AND ENJOY!","torrent":{"xt":"urn:btih:b9635dacc434bf2719483a5bda7e2356ad216d86","amp;dn":"Bhaji+in+Problem+Punjabi+DVDSCR-Rip+x264-D3Si+MaNiaCs","amp;tr":["udp%3A%2F%2Ftracker.openbittorrent.com%3A80","udp%3A%2F%2Fopen.demonii.com%3A1337","udp%3A%2F%2Ftracker.coppersurfer.tk%3A6969","udp%3A%2F%2Fexodus.desync.com%3A6969"],"infoHash":"b9635dacc434bf2719483a5bda7e2356ad216d86","infoHashBuffer":{"type":"Buffer","data":[185,99,93,172,196,52,191,39,25,72,58,91,218,126,35,86,173,33,109,134]},"announce":[],"urlList":[]}}